<?xml version="1.0" standalone="no"?>
<!DOCTYPE svg PUBLIC "-//W3C//DTD SVG 20010904//EN"
 "http://www.w3.org/TR/2001/REC-SVG-20010904/DTD/svg10.dtd">
<svg version="1.0" xmlns="http://www.w3.org/2000/svg"
 width="354.000000pt" height="520.000000pt" viewBox="0 0 354.000000 520.000000"
 preserveAspectRatio="xMidYMid meet">

<g transform="translate(0.000000,520.000000) scale(0.100000,-0.100000)"
fill="#000000" stroke="none">
<path d="M1650 5150 c-44 -7 -43 -7 20 -8 36 -1 72 3 80 8 18 11 -27 11 -100
0z"/>
<path d="M1788 5143 c6 -2 18 -2 25 0 6 3 1 5 -13 5 -14 0 -19 -2 -12 -5z"/>
<path d="M1630 5090 c-592 -57 -1106 -469 -1285 -1030 -63 -200 -67 -236 -72
-710 -3 -263 -9 -440 -15 -447 -6 -8 -6 -18 0 -29 8 -15 11 -13 16 14 4 17 13
36 21 42 13 11 212 16 223 5 3 -3 -43 -5 -101 -5 -95 0 -107 -2 -117 -19 -16
-31 -12 -33 19 -10 37 27 74 20 48 -9 -15 -16 -15 -19 3 -30 15 -9 20 -23 20
-53 0 -28 4 -39 13 -36 8 3 11 22 9 60 -4 64 9 77 77 77 52 0 54 -19 6 -55
-46 -36 -85 -118 -91 -191 l-4 -59 13 50 c24 91 100 205 138 205 23 0 5 -53
-33 -100 -64 -78 -88 -113 -88 -126 0 -7 13 1 30 17 36 36 59 30 34 -9 l-17
-27 31 28 c19 18 32 25 37 18 6 -10 -51 -71 -66 -71 -12 0 -39 -92 -39 -135 0
-44 22 -87 34 -67 4 6 10 35 13 64 4 40 12 58 32 75 28 24 56 29 66 13 3 -5 1
-10 -5 -10 -6 0 -9 -4 -6 -9 3 -5 -1 -11 -8 -14 -8 -3 -20 -16 -26 -28 -11
-20 -11 -21 16 -15 24 6 26 5 15 -8 -8 -9 -20 -16 -27 -16 -8 0 -14 -5 -14
-11 0 -6 -7 -8 -16 -5 -8 3 -12 2 -9 -4 3 -6 2 -10 -4 -10 -60 0 54 -404 157
-561 25 -38 48 -67 50 -65 2 3 -8 22 -22 43 -43 63 -31 80 30 42 29 -18 34
-26 35 -62 1 -23 4 -32 6 -20 2 13 9 23 14 23 6 0 7 5 3 12 -5 8 4 9 35 4 33
-5 43 -3 47 9 8 21 -5 33 -15 16 -6 -9 -11 -10 -15 -2 -12 19 4 31 40 31 33 0
34 -1 34 -43 0 -123 98 -284 233 -384 61 -45 54 -55 -10 -12 -88 59 -217 200
-257 280 -39 78 -53 99 -67 99 -5 0 0 -9 11 -20 11 -11 20 -29 20 -40 0 -17
-3 -19 -19 -10 -11 5 -27 10 -36 10 -20 0 289 -303 352 -345 24 -16 39 -31 33
-33 -6 -2 -30 9 -53 24 -23 16 -49 29 -57 30 -8 1 -35 11 -59 23 -23 12 -40
18 -36 12 10 -17 -58 -13 -81 4 -29 22 -106 19 -134 -5 -24 -20 -66 -28 -55
-10 4 6 -6 10 -22 10 -33 1 -68 24 -58 39 3 6 21 11 38 11 26 0 33 4 34 20 1
16 -4 20 -31 20 -17 0 -49 -9 -70 -20 -43 -22 -61 -18 -46 10 22 41 112 51
200 20 38 -13 49 -14 35 -4 -29 21 -83 34 -147 34 -52 0 -61 -4 -101 -38 l-45
-39 32 -11 c18 -7 40 -12 48 -12 9 0 29 -11 45 -24 15 -13 45 -29 66 -37 33
-12 44 -11 86 4 59 21 79 21 139 3 26 -8 63 -17 82 -20 19 -3 50 -15 68 -26
28 -17 32 -23 22 -35 -8 -10 -9 -15 -2 -15 6 0 14 5 17 10 3 5 11 10 17 10 6
0 2 -10 -10 -23 -12 -13 -22 -30 -23 -38 -1 -8 -5 -3 -9 11 -7 23 -8 21 -9
-12 -1 -20 -4 -45 -8 -55 -6 -17 -6 -17 14 0 12 10 24 30 28 45 4 15 11 33 17
39 12 15 67 17 88 3 11 -7 7 -10 -17 -10 -35 0 -63 -22 -63 -49 0 -24 -31 -51
-58 -51 -38 0 -24 -15 41 -43 44 -19 72 -26 93 -21 18 3 51 -1 79 -10 52 -18
83 -13 103 15 17 24 29 24 37 0 3 -11 19 -21 38 -25 71 -14 134 -48 148 -79
23 -51 87 -76 191 -77 79 0 94 3 153 32 42 21 65 38 65 49 0 35 14 52 63 75
39 18 61 21 98 17 32 -4 54 -1 64 7 11 9 37 10 95 5 69 -6 84 -5 100 10 10 9
37 19 59 22 33 5 42 10 50 36 14 38 14 37 -5 30 -8 -3 -13 -12 -10 -20 11 -27
-27 -26 -75 1 -31 17 -77 31 -128 38 -44 7 -78 16 -75 20 9 14 162 9 201 -7
32 -14 34 -14 22 1 -7 8 -29 24 -48 35 l-36 20 45 -7 c25 -3 61 -15 80 -25
l35 -19 -28 23 c-35 29 -30 34 78 78 72 29 91 32 190 34 120 1 149 11 198 64
15 16 41 32 57 36 16 4 32 11 35 16 10 15 -40 10 -71 -6 -20 -11 -46 -14 -84
-10 l-55 5 44 -13 c48 -13 64 -33 34 -43 -10 -3 -28 -11 -40 -16 -12 -6 -35
-8 -52 -5 -16 4 -31 2 -33 -3 -2 -6 -18 -5 -40 2 -37 11 -44 10 -137 -19 -34
-10 24 29 79 54 54 25 94 27 145 7 11 -4 17 -4 13 1 -4 4 -28 13 -53 20 l-46
11 53 45 c50 42 55 44 111 42 37 -1 73 -9 99 -23 22 -11 43 -19 46 -16 9 10
-20 36 -42 36 -11 0 -43 7 -71 15 l-50 15 65 -4 c59 -4 62 -3 30 7 -30 9 -32
11 -12 15 12 2 22 7 22 12 0 11 -74 -7 -123 -31 -31 -15 -37 -16 -22 -3 27 22
96 54 118 54 10 0 16 4 12 9 -7 12 40 46 101 73 40 17 59 19 115 14 59 -5 71
-3 86 13 10 10 33 22 51 26 41 9 35 16 -26 32 -70 18 -134 16 -189 -8 l-48
-20 30 33 30 33 -30 -25 c-16 -13 -52 -45 -79 -70 -47 -43 -41 -29 14 36 14
16 52 52 85 79 33 28 68 61 79 74 11 13 40 37 66 55 26 17 74 49 106 71 l58
40 -39 8 c-94 19 -100 19 -125 -3 l-25 -21 27 16 c21 13 36 15 65 8 52 -12 58
-37 6 -29 -35 6 -45 3 -96 -35 -31 -23 -55 -45 -52 -47 3 -3 15 4 28 16 23 22
68 42 94 42 13 0 13 -3 3 -15 -7 -8 -17 -15 -22 -15 -24 0 -133 -87 -165 -131
-37 -52 -57 -61 -28 -12 15 24 13 23 -14 -7 -17 -19 -31 -31 -31 -27 0 20 159
277 195 313 37 36 38 40 17 36 -22 -4 -24 -2 -19 19 17 63 16 70 -3 24 -31
-74 -80 -173 -115 -235 -81 -141 -97 -173 -85 -165 8 5 11 3 8 -6 -3 -8 -10
-14 -16 -14 -5 0 -14 -4 -19 -9 -5 -5 -2 -6 6 -1 9 5 12 3 9 -6 -3 -8 -10 -14
-16 -14 -7 0 -28 -25 -49 -55 -20 -30 -64 -82 -97 -115 -66 -66 -227 -193
-291 -230 -41 -24 -145 -68 -145 -61 0 2 15 14 33 26 38 26 40 26 -98 -29 -60
-24 -121 -45 -135 -46 -14 -2 -34 -6 -45 -10 -11 -4 20 17 69 46 118 71 193
142 265 249 95 142 115 192 115 280 0 44 5 80 12 87 17 18 24 5 25 -46 1 -90
18 -9 18 91 1 53 4 104 7 113 6 14 8 14 25 -1 21 -19 27 -6 7 14 -9 9 -9 12 2
12 65 -1 67 -97 5 -220 -14 -27 -23 -50 -21 -50 9 0 66 108 66 124 0 17 25 22
35 6 3 -5 -3 -30 -14 -54 -25 -58 -169 -270 -228 -338 -84 -96 -88 -104 -20
-38 148 142 257 303 283 416 21 99 13 157 -28 194 -28 26 -29 29 -12 38 30 16
78 -9 94 -48 13 -32 8 -85 -15 -155 -3 -11 1 -7 10 8 23 39 30 120 15 157 -13
32 -55 60 -90 60 -11 0 -20 5 -20 10 0 6 -7 10 -15 10 -23 0 -18 30 8 40 12 5
17 9 11 9 -15 1 -11 76 4 76 23 0 102 -66 122 -102 12 -21 18 -29 14 -18 -4
11 -8 34 -9 50 0 17 -9 56 -19 88 -10 32 -15 65 -12 73 6 16 36 19 36 3 0 -6
7 -8 15 -5 24 9 37 -38 29 -106 -4 -38 -3 -58 4 -58 6 0 13 -15 15 -32 3 -18
3 9 2 59 -3 94 3 115 25 88 19 -23 7 -216 -17 -285 -11 -30 -23 -64 -27 -75
-4 -11 2 -3 13 17 34 60 51 145 51 250 0 84 -3 101 -19 117 -11 11 -27 31 -36
45 -9 13 -30 28 -46 31 -33 8 -47 24 -29 35 10 6 9 9 -1 12 -9 4 -4 10 15 19
24 11 32 11 60 -5 17 -10 25 -12 19 -5 -18 18 -16 39 2 39 8 0 15 5 15 10 0
18 43 10 67 -12 13 -12 23 -16 23 -10 0 6 -6 16 -12 21 -60 46 -108 97 -106
110 2 10 17 18 38 21 l35 6 -50 25 c-42 21 -51 30 -53 56 l-3 30 65 2 c35 1
67 -3 71 -8 3 -6 12 -8 19 -5 8 3 13 -1 13 -8 -1 -7 3 -33 8 -58 l9 -45 5 35
c4 19 11 35 16 36 6 0 18 4 29 9 11 5 26 4 37 -4 11 -6 19 -8 19 -3 0 4 -9 13
-20 20 -26 16 -26 32 1 32 l21 0 -5 418 c-6 443 -10 492 -61 667 -162 553
-626 964 -1194 1059 -115 19 -277 26 -382 16z m291 -70 c279 -28 657 -197 834
-375 201 -200 301 -356 383 -600 40 -122 57 -220 82 -480 11 -112 10 -606 -1
-647 -8 -29 -18 -33 -34 -12 -13 16 -15 78 -13 414 1 337 -2 410 -17 495 -81
460 -370 842 -789 1041 -182 86 -335 123 -551 131 -125 4 -170 2 -273 -16
-592 -101 -1043 -544 -1158 -1138 -14 -71 -18 -164 -21 -480 -4 -312 -7 -393
-18 -393 -11 0 -22 125 -29 350 -2 67 16 346 29 437 55 394 197 676 461 916
258 235 537 339 985 365 15 1 73 -3 130 -8z m-142 -307 c10 10 100 12 109 2 3
-2 -7 -18 -21 -35 -14 -16 -28 -39 -32 -50 -3 -11 -14 -21 -23 -21 -21 -2 72
-17 111 -18 16 -1 26 3 22 9 -3 5 -13 6 -22 3 -12 -5 -15 -2 -10 10 3 9 2 17
-3 17 -6 0 -10 -4 -10 -10 0 -5 -13 -10 -30 -10 -16 0 -30 3 -30 8 1 16 27 52
53 72 27 22 27 22 102 4 41 -10 75 -21 75 -25 0 -3 -13 -12 -29 -19 -16 -6
-41 -24 -56 -40 l-27 -29 36 -7 c20 -3 40 -4 43 0 4 3 -6 6 -20 6 -42 0 -33
28 16 50 45 21 126 26 155 11 9 -6 55 -25 102 -43 82 -31 120 -56 120 -79 0
-8 -5 -7 -15 1 -23 19 -141 -15 -172 -49 l-24 -25 -47 18 c-176 68 -282 93
-282 66 0 -7 6 -10 14 -7 21 8 27 -3 14 -26 -8 -16 -7 -23 4 -31 8 -6 22 -24
30 -41 9 -16 30 -40 47 -53 29 -21 40 -50 25 -65 -4 -3 -22 5 -42 18 -20 14
-38 22 -41 20 -3 -3 5 -12 17 -21 12 -8 22 -19 22 -25 0 -14 -32 -11 -50 6
-19 17 -106 45 -114 37 -4 -3 -6 -17 -6 -31 0 -22 1 -23 13 -8 15 21 60 15 96
-12 l23 -18 -25 -29 c-25 -28 -25 -29 -46 -10 -23 21 -28 11 -7 -16 18 -24 24
-23 60 15 17 18 50 41 73 51 24 11 51 32 61 47 l17 28 51 -34 c56 -38 87 -77
82 -103 -2 -9 -11 -16 -21 -16 -9 1 -17 -2 -17 -6 0 -14 -52 -43 -59 -32 -3 5
-31 13 -61 17 -53 6 -54 6 -32 -10 18 -13 52 -73 52 -91 0 -2 -9 -4 -20 -4
-21 0 -28 -16 -10 -22 12 -4 -68 -65 -226 -173 -65 -44 -201 -142 -302 -218
-212 -158 -227 -167 -279 -167 -33 0 -47 8 -95 53 -59 56 -69 70 -92 138 -12
34 -13 59 -6 108 5 36 7 68 4 73 -3 4 3 8 14 8 10 0 30 14 43 32 30 41 69 78
81 78 5 0 7 -3 5 -7 -7 -13 -35 -77 -40 -95 -4 -10 -2 -20 3 -23 6 -4 10 4 10
17 0 31 63 131 97 153 14 10 38 21 52 25 l26 8 -29 1 c-18 1 -43 -11 -69 -31
-23 -18 -51 -33 -62 -33 -14 0 -38 -20 -66 -55 -46 -56 -79 -75 -79 -45 0 38
92 194 157 266 28 31 32 40 24 62 -6 14 -20 29 -33 32 -18 6 -29 0 -56 -31
-84 -97 -134 -189 -192 -357 -68 -199 -80 -256 -65 -329 28 -139 88 -383 111
-450 13 -39 22 -73 21 -75 -2 -2 -36 -7 -75 -12 -39 -5 -75 -12 -81 -16 -6 -3
-11 -37 -11 -74 0 -84 -9 -131 -24 -131 -7 0 -16 -15 -21 -32 -6 -18 -16 -33
-23 -33 -8 0 -43 67 -82 154 l-68 153 24 64 c13 35 22 64 20 64 -3 0 -28 -23
-56 -50 -29 -28 -69 -60 -91 -70 l-39 -20 0 20 c0 14 -6 20 -17 18 -10 -2 -19
4 -21 13 -2 10 20 32 58 60 33 24 60 45 60 47 0 1 -13 -4 -30 -13 -71 -37 -67
-7 5 34 33 19 73 54 101 89 48 60 105 169 103 199 0 16 -33 -43 -67 -126 -24
-56 -109 -139 -162 -158 -47 -16 -78 -52 -65 -73 5 -9 -13 -25 -20 -18 -2 2 2
34 10 72 7 39 11 86 8 105 -7 60 13 82 94 106 93 29 142 69 192 158 26 46 32
61 16 41 -44 -54 -99 -110 -135 -136 -42 -30 -105 -44 -126 -27 -17 14 -10 27
24 41 22 9 24 12 9 15 -34 8 -12 36 53 69 36 19 81 47 100 64 l35 30 -52 -31
c-42 -26 -55 -29 -72 -20 -12 7 -21 15 -21 20 0 14 34 38 62 45 15 3 40 18 55
32 19 17 22 22 8 16 -11 -6 -33 -8 -48 -5 -39 8 -35 36 7 51 37 14 148 96 155
114 5 14 -13 4 -65 -39 -58 -47 -93 -45 -38 2 30 25 44 45 49 72 4 21 12 47
18 58 6 11 12 22 12 25 4 14 26 67 36 84 6 10 20 35 31 55 11 20 26 41 35 48
19 15 43 60 43 82 1 25 31 57 79 81 41 20 111 85 111 103 0 4 15 15 34 24 19
9 36 24 39 33 2 10 22 23 43 30 22 7 52 23 67 36 34 28 36 29 65 8 13 -9 26
-13 29 -10 3 3 -6 11 -21 17 -33 15 -29 33 10 37 16 2 41 15 56 29 31 30 61
25 83 -15 l14 -27 -6 36 -5 36 47 6 c97 14 111 11 130 -29 14 -30 15 -38 4
-45 -10 -6 -4 -8 16 -8 17 0 24 3 18 6 -7 2 -13 10 -13 17 0 6 -11 28 -25 48
-14 20 -25 39 -25 41 0 3 16 5 36 5 19 0 38 3 41 6 4 3 16 0 28 -8 17 -11 25
-12 34 -3z m729 -539 c111 -54 202 -104 202 -110 0 -24 -18 -24 -47 0 -63 53
-123 68 -123 32 0 -12 7 -14 29 -10 31 7 69 -9 89 -37 7 -10 33 -30 57 -45 25
-14 43 -30 40 -34 -3 -5 0 -12 6 -16 8 -5 9 -3 4 6 -4 7 -4 11 1 9 33 -14 321
-163 328 -169 16 -15 -150 -52 -334 -75 -295 -37 -470 -95 -819 -270 l-147
-73 -45 76 c-49 82 -95 122 -139 122 -52 0 -69 -26 -86 -130 -36 -231 -57
-335 -97 -478 -38 -138 -44 -153 -62 -149 -122 26 -285 81 -285 96 0 4 11 18
24 31 l25 23 83 -22 c46 -11 98 -22 116 -23 32 -3 35 0 53 45 29 74 56 179 78
312 22 133 36 285 27 285 -3 0 -23 -15 -43 -33 -52 -46 -186 -147 -195 -147
-5 0 -8 13 -8 30 0 24 12 39 63 81 89 75 270 209 430 319 297 204 370 260 445
339 37 39 62 90 62 129 0 16 8 12 268 -114z m-405 -28 c24 -1 21 -11 -10 -36
l-28 -22 -11 29 c-14 33 -8 47 15 37 9 -4 24 -7 34 -8z m915 -466 c24 -1 25
-2 9 -11 -13 -7 -16 -17 -11 -32 6 -19 5 -20 -10 -8 -13 11 -19 11 -32 0 -15
-12 -16 -11 -10 7 5 16 1 24 -16 32 -23 10 -23 11 5 11 21 1 27 6 28 24 l2 22
4 -22 c3 -17 11 -23 31 -23z m-273 -1 c-33 -10 -80 -21 -105 -24 -33 -3 -22 2
40 19 101 28 151 32 65 5z m-172 -131 c4 -101 9 -127 51 -246 54 -155 57 -188
21 -202 -19 -7 -34 -5 -59 7 -21 10 -41 13 -53 8 -16 -7 -14 -9 9 -14 20 -4
25 -10 19 -20 -5 -8 -5 -27 0 -44 5 -17 5 -34 1 -37 -10 -9 -108 -30 -139 -30
-15 0 -23 -5 -20 -12 2 -9 24 -13 60 -13 31 0 61 -5 68 -12 18 -18 3 -43 -26
-43 -29 0 -31 -11 -9 -45 13 -20 13 -30 3 -65 -7 -23 -22 -46 -33 -52 -12 -7
-71 -15 -132 -19 -174 -11 -227 -51 -253 -194 -12 -66 -13 -246 -1 -285 l7
-25 6 25 c4 14 8 34 9 44 9 57 59 2 83 -90 21 -80 21 -204 -1 -204 -8 0 -66
27 -127 59 -62 33 -195 98 -297 144 -411 188 -425 196 -401 220 6 6 11 18 11
27 0 9 9 25 21 36 28 25 49 67 49 98 0 24 18 51 123 190 46 59 58 114 58 268
0 150 5 163 57 131 l27 -17 -19 22 c-22 25 -22 23 21 39 28 10 34 8 54 -13 23
-24 59 -33 59 -14 0 6 -6 19 -12 30 -9 14 -10 22 -1 31 14 14 78 28 130 29 46
0 60 14 102 101 14 31 32 51 50 59 25 10 81 79 81 99 0 34 274 137 371 140
l26 1 6 -112z m165 -18 c27 -1 27 -1 5 -13 -17 -10 -20 -16 -11 -30 9 -17 8
-18 -12 -7 -18 10 -24 8 -36 -7 -15 -20 -19 -6 -4 17 7 11 3 18 -13 27 l-22
12 23 1 c16 0 26 8 30 23 l7 22 3 -22 c3 -17 10 -23 30 -23z m-1133 -14 c-18
-26 -45 -42 -45 -25 0 23 22 49 41 49 18 0 19 -1 4 -24z m20 -36 c-21 -22 -48
-40 -60 -39 -19 0 -19 1 -1 12 11 7 33 24 50 39 47 42 55 33 11 -12z m515 15
c-7 -8 -27 -15 -44 -14 l-31 1 40 18 c43 20 55 19 35 -5z m983 -35 c22 0 22
-1 -2 -19 -16 -12 -20 -21 -12 -25 6 -4 11 -12 11 -18 0 -6 -9 -3 -20 7 -17
15 -22 16 -36 4 -16 -13 -16 -12 -6 7 10 19 8 24 -11 37 l-22 15 26 -5 c21 -4
28 0 34 19 l8 23 4 -22 c3 -16 12 -23 26 -23z m-1688 -96 c-8 -66 -21 -146
-27 -179 -12 -66 -56 -216 -67 -227 -6 -7 -150 25 -176 39 -8 5 -11 13 -6 21
6 10 23 9 81 -7 40 -11 76 -18 81 -15 26 16 107 414 84 414 -4 0 -19 -8 -33
-19 -44 -30 -114 -63 -110 -51 3 11 181 149 186 145 2 -2 -4 -56 -13 -121z
m212 87 c-42 -39 -97 -63 -97 -43 0 6 10 14 23 18 12 4 37 20 55 35 50 44 67
34 19 -10z m436 -1 c10 0 15 -4 12 -10 -3 -5 -20 -10 -36 -10 -17 0 -28 -4
-25 -9 3 -5 0 -11 -8 -14 -9 -4 -12 -14 -9 -26 3 -12 1 -21 -5 -21 -5 0 -9 -8
-8 -17 1 -15 -10 -19 -59 -23 -64 -5 -55 -20 13 -20 35 0 36 -1 18 -17 -13
-13 -20 -15 -23 -5 -6 14 -42 16 -78 2 -24 -9 -25 -8 -15 11 11 19 10 20 -12
8 -13 -6 -27 -18 -31 -26 -9 -15 -70 -47 -107 -56 -17 -4 -42 2 -75 19 l-50
24 70 -5 c73 -5 87 0 169 59 14 10 53 21 87 25 66 8 79 19 79 68 0 36 23 56
55 48 11 -3 28 -5 38 -5z m-388 -20 c-10 -11 -27 -20 -38 -20 -19 0 -20 1 -2
20 10 11 27 20 38 20 19 0 20 -1 2 -20z m275 -19 c0 -39 -28 -53 -91 -46 -57
7 -59 6 -94 -29 -35 -35 -37 -36 -117 -36 -64 0 -87 -4 -114 -21 -29 -17 -34
-18 -34 -5 0 9 9 25 21 37 17 17 28 20 56 14 42 -8 121 4 103 15 -9 5 -6 12
11 24 26 18 49 21 49 6 0 -5 -8 -14 -17 -19 -30 -17 -8 -12 38 9 25 11 66 20
95 20 44 0 54 4 68 25 20 30 26 31 26 6z m-286 -26 c-10 -24 -41 -36 -78 -30
-19 4 -43 2 -55 -4 -14 -8 -21 -8 -21 -1 0 14 51 30 152 49 4 0 5 -6 2 -14z
m-310 -77 c-12 -78 -34 -182 -50 -231 -16 -48 -17 -49 -51 -42 -19 3 -46 10
-59 15 l-23 9 39 68 c34 57 40 77 40 123 l0 56 48 22 c26 11 50 21 55 21 4 1
4 -18 1 -41z m1544 -72 l27 6 -23 -17 c-23 -17 -23 -18 -5 -37 18 -21 18 -21
-5 -9 -20 11 -26 10 -39 -6 -14 -17 -14 -17 -10 4 4 17 -1 24 -22 32 -25 9
-25 9 -3 10 15 1 26 9 29 22 5 19 7 19 15 5 6 -11 17 -14 36 -10z m-1275 -25
c8 -8 -2 -11 -39 -11 -27 0 -55 -5 -62 -12 -19 -19 -14 -99 9 -164 37 -106 14
-208 -73 -320 -60 -77 -118 -114 -179 -114 -27 0 -60 -5 -74 -12 -30 -13 -55
-55 -55 -90 0 -13 -11 -40 -25 -60 -27 -39 -25 -62 7 -79 25 -13 34 -6 13 11
-8 7 -15 19 -15 27 0 10 11 4 29 -16 32 -34 44 -82 24 -88 -7 -3 -13 0 -13 6
0 7 -24 11 -60 11 -84 0 -116 34 -90 95 8 18 9 17 9 -6 1 -32 27 -65 58 -74
20 -6 20 -3 -7 24 -37 37 -39 79 -6 118 30 34 44 26 16 -10 -41 -52 -13 -127
47 -127 22 0 25 2 13 10 -8 5 -23 10 -33 10 -9 0 -22 11 -29 24 -9 21 -6 32
16 70 14 24 26 59 26 76 0 47 51 95 112 104 56 8 105 40 131 83 10 18 25 76
33 128 8 53 21 109 30 123 14 25 15 22 10 -58 -6 -105 -35 -188 -82 -236 -19
-19 -31 -34 -26 -34 19 0 74 67 102 125 41 83 52 166 39 287 -11 108 -1 169
29 188 21 13 99 7 115 -9z m-43 -93 c0 -105 -22 -129 -39 -47 -10 43 -9 56 4
75 24 37 35 28 35 -28z m-1102 -120 c-6 -18 -25 -21 -31 -5 -3 8 3 13 15 14
10 1 18 -3 16 -9z m2359 -29 l28 0 -25 -12 c-14 -6 -26 -12 -28 -13 -2 -1 2
-13 9 -26 12 -23 12 -23 -9 -4 -19 16 -24 17 -38 5 -15 -12 -16 -11 -10 8 5
16 1 26 -16 38 l-23 17 28 -6 c24 -6 30 -3 34 15 l6 23 8 -22 c6 -15 17 -22
36 -23z m-1731 -113 c9 -25 -14 -54 -53 -66 -21 -7 -46 -19 -55 -28 -13 -11
-18 -11 -18 -3 0 7 12 22 26 34 15 12 39 34 53 48 31 31 40 34 47 15z m54 -34
c0 -22 -42 -63 -86 -85 -35 -18 -46 -38 -38 -64 5 -15 4 -16 -5 -3 -6 8 -11
29 -12 45 l-1 30 -7 -30 c-5 -22 -8 -26 -13 -14 -6 16 5 44 19 44 22 2 95 48
109 70 19 29 34 32 34 7z m40 -6 c0 -8 -12 -24 -26 -35 -15 -12 -24 -21 -20
-21 15 0 52 23 68 44 15 17 18 18 18 4 0 -20 -46 -58 -71 -58 -9 0 -31 -12
-48 -26 -31 -26 -31 -27 -31 -123 0 -88 -2 -100 -25 -131 -20 -27 -25 -30 -25
-14 0 10 9 33 20 49 17 26 19 41 13 112 l-6 82 57 54 c31 30 56 60 56 66 0 6
5 11 10 11 6 0 10 -6 10 -14z m103 -40 c-3 -40 -28 -63 -90 -83 -64 -20 -82
-38 -89 -89 l-6 -39 19 35 c13 26 31 40 71 56 63 25 98 56 114 101 15 42 48
46 48 6 0 -62 -54 -113 -134 -128 -46 -9 -89 -44 -107 -87 -13 -32 -13 -32
-20 -8 -4 14 -7 48 -8 76 -1 43 3 54 27 75 15 14 46 34 70 44 26 11 49 30 58
47 20 38 50 34 47 -6z m1468 1 c41 -28 105 -129 112 -180 6 -36 4 -38 -36 -59
-48 -24 -47 -24 -57 -8 -11 18 -46 -4 -62 -37 -10 -21 -31 -34 -86 -54 -41
-15 -81 -34 -90 -42 -35 -30 -303 -17 -371 18 l-24 12 44 30 c24 17 64 40 89
53 40 20 50 22 100 12 104 -19 126 -3 210 143 53 95 89 135 119 135 10 0 33
-10 52 -23z m-1781 -109 c0 -5 -7 -8 -15 -8 -15 0 -20 21 -8 33 7 7 23 -11 23
-25z m20 -38 c30 -30 26 -76 -9 -111 -16 -16 -36 -29 -45 -29 -11 0 -9 -7 9
-25 28 -27 32 -70 11 -97 -11 -15 -33 -18 -142 -20 l-129 -2 130 -5 c134 -6
166 -15 185 -52 17 -31 -9 -64 -62 -76 -33 -8 -37 -11 -16 -12 29 -1 58 -24
58 -47 0 -8 -9 -23 -20 -34 -17 -17 -35 -20 -127 -22 l-108 -1 102 -6 c56 -3
103 -8 106 -11 2 -3 10 -15 16 -27 25 -48 -9 -70 -134 -89 l-50 -8 38 -10 c30
-8 37 -14 35 -30 -2 -12 -12 -22 -23 -24 -11 -2 -28 -11 -38 -20 -16 -14 -21
-14 -53 2 -20 9 -34 20 -30 23 3 3 -9 17 -26 30 -35 25 -42 28 -33 13 3 -6 -1
-7 -9 -4 -27 10 -75 162 -106 334 -20 110 -17 121 54 196 45 48 68 65 80 61
12 -5 15 -14 10 -32 -5 -20 -2 -25 13 -25 15 0 19 6 17 29 -2 25 2 30 28 35
17 3 48 6 69 6 39 0 43 -5 42 -47 -1 -7 3 -13 8 -13 5 0 9 13 9 28 0 17 10 38
25 52 13 12 29 38 35 56 14 40 48 46 80 14z m-130 -20 c7 -14 7 -26 1 -39 -14
-26 -189 -37 -208 -13 -17 21 -16 37 3 56 12 12 37 16 104 16 79 0 91 -2 100
-20z m520 -30 c0 -31 -30 -98 -47 -104 -23 -9 -25 -3 -7 32 8 18 13 41 9 51
-4 13 0 23 12 30 26 15 33 13 33 -9z m-880 -3 c0 -2 -12 -14 -27 -28 -24 -22
-24 -13 0 19 8 11 27 17 27 9z m812 -37 c-4 -34 -21 -50 -51 -50 -36 0 -71
-26 -71 -54 0 -29 14 -41 65 -58 40 -13 53 -34 40 -66 -5 -14 -8 -12 -18 8
-10 20 -22 26 -61 31 -56 6 -76 26 -76 76 0 26 10 45 46 83 51 55 64 61 64 30
0 -13 -13 -28 -35 -41 -47 -28 -44 -34 4 -9 22 11 43 30 47 42 13 43 51 49 46
8z m-79 -94 c-10 -13 -20 -20 -21 -15 -5 12 17 39 30 39 5 0 1 -11 -9 -24z
m77 -1 c9 -11 8 -19 -7 -39 -22 -31 -29 -32 -43 -6 -8 14 -7 25 2 40 15 24 31
26 48 5z m856 -107 c19 -25 43 -66 53 -90 23 -52 35 -160 25 -224 -6 -44 -7
-45 -19 -24 -9 16 -13 19 -17 8 -3 -7 0 -22 7 -31 14 -20 45 -23 45 -4 0 6 12
21 27 31 21 15 29 17 44 8 29 -19 48 -15 42 8 -3 13 0 20 8 20 10 0 10 3 1 12
-22 22 -13 29 30 26 36 -3 44 -7 52 -31 13 -37 -2 -62 -40 -64 -16 0 -35 -2
-41 -2 -18 -1 -16 -21 2 -21 17 0 20 -16 5 -25 -5 -3 -6 -13 -3 -21 4 -10 -2
-17 -15 -21 -13 -3 -20 -12 -18 -22 16 -72 19 -81 37 -81 11 0 19 -5 19 -11 0
-6 -7 -8 -17 -5 -25 10 -110 -22 -116 -44 -3 -10 -2 -21 1 -24 9 -10 34 -7 28
3 -8 13 14 28 52 36 36 7 45 -9 10 -18 l-22 -6 24 -26 c23 -25 23 -25 4 -39
-16 -13 -19 -13 -22 0 -4 19 -21 18 -28 -1 -5 -11 -10 -13 -19 -5 -10 8 -19 0
-38 -32 -14 -24 -24 -44 -22 -46 2 -2 14 2 27 9 21 11 22 11 8 -5 -8 -10 -15
-24 -16 -31 -3 -21 -101 -136 -148 -173 -73 -60 -81 -56 -15 6 67 62 110 125
95 139 -5 4 -11 1 -13 -7 -3 -8 -40 -48 -82 -89 -78 -76 -183 -137 -218 -128
-14 4 -14 5 4 6 32 2 89 61 102 106 13 48 14 106 1 160 -11 50 -6 54 25 25 14
-13 28 -21 31 -17 9 9 -5 27 -22 27 -8 0 -14 5 -14 10 0 14 43 13 58 -2 17
-17 15 -63 -3 -78 -8 -7 -12 -16 -9 -21 3 -5 13 0 23 12 12 15 24 20 35 16 22
-9 16 -29 -11 -42 -35 -18 -54 -37 -74 -76 -19 -38 -26 -64 -11 -44 4 6 31 30
59 53 61 50 84 103 63 142 -10 18 -9 24 1 31 21 13 36 11 43 -7 9 -23 7 -36
-4 -29 -5 3 -10 1 -10 -4 0 -24 30 -9 36 17 10 48 13 52 39 52 29 0 33 20 9
44 -21 22 -26 20 -19 -6 5 -19 3 -18 -10 5 -20 35 -28 34 -23 -3 3 -17 1 -33
-2 -35 -12 -7 -21 55 -11 73 10 21 4 42 -14 42 -11 0 -12 7 -4 32 11 40 11 38
0 38 -5 0 -11 -10 -13 -22 -2 -17 -13 -24 -42 -30 -22 -5 -45 -13 -51 -18 -7
-6 -20 -8 -29 -4 -12 5 -15 2 -10 -10 4 -10 1 -16 -7 -16 -23 0 -140 63 -129
70 7 4 -3 21 -26 44 -36 36 -37 38 -30 94 4 31 11 61 15 65 5 5 23 1 40 -7 28
-15 31 -21 31 -64 0 -34 3 -43 10 -32 5 8 10 25 10 38 0 26 10 27 51 6 20 -10
28 -21 25 -32 -2 -9 -7 -30 -10 -45 -5 -21 -18 -33 -49 -47 -38 -17 -39 -19
-15 -19 15 -1 30 4 33 9 11 18 23 11 31 -17 6 -23 9 -14 16 46 4 41 10 76 12
78 10 11 46 -20 47 -40 1 -17 3 -15 8 8 5 25 3 31 -14 35 -11 3 -78 35 -150
70 -129 65 -191 94 -395 185 -58 26 -136 63 -173 82 -63 33 -67 37 -52 52 8
10 15 23 15 29 0 20 17 14 137 -44 63 -30 201 -94 306 -141 106 -47 227 -105
270 -130 50 -28 95 -46 123 -49 42 -3 44 -2 39 19 -3 12 -9 67 -15 123 -11
119 -27 160 -83 221 -37 41 -40 46 -25 57 14 10 15 15 5 26 -7 7 3 4 21 -6 19
-10 49 -40 68 -66z m83 17 c23 14 111 -47 111 -76 0 -17 -43 1 -65 27 -15 18
-24 21 -32 13 -15 -15 -49 4 -56 31 -4 17 -2 18 14 9 11 -5 23 -7 28 -4z
m-989 -50 c0 -16 -9 -19 -34 -9 -25 9 -19 24 9 24 16 0 25 -6 25 -15z m1162
-12 c22 -20 25 -55 3 -47 -8 4 -15 12 -15 19 0 7 -10 20 -22 28 -21 15 -21 16
-4 16 11 1 28 -6 38 -16z m-134 -5 c21 -21 13 -38 -18 -38 -23 0 -30 5 -30 19
0 11 -6 22 -12 24 -7 3 1 6 18 6 16 1 35 -4 42 -11z m-1034 -12 c57 -11 65
-24 41 -66 -8 -14 -14 -29 -15 -34 0 -16 28 15 40 44 l12 29 39 -20 c43 -22
45 -26 25 -73 -30 -72 -119 -90 -178 -37 -28 25 -32 35 -31 71 2 35 0 40 -10
27 -21 -28 -65 -38 -108 -27 -45 13 -54 23 -39 50 9 17 21 20 84 20 58 0 75 3
80 16 4 10 13 13 27 9 12 -4 27 -8 33 -9z m1254 -34 c3 -21 1 -22 -16 -13 -11
6 -22 18 -26 26 -4 13 -1 16 17 13 14 -2 23 -11 25 -26z m-114 -3 c35 -27 33
-39 -6 -39 -39 0 -63 13 -54 29 4 6 0 11 -8 11 -9 0 -16 5 -16 10 0 18 57 11
84 -11z m166 -14 c9 -11 10 -19 3 -26 -8 -8 -13 -7 -17 0 -4 6 -1 11 6 11 8 1
6 6 -6 15 -11 8 -15 15 -9 15 6 0 16 -7 23 -15z m-232 -28 c15 -24 15 -29 2
-37 -27 -18 -65 -8 -65 17 0 12 -4 25 -8 29 -15 16 -5 25 24 22 21 -2 36 -12
47 -31z m169 13 c40 -24 54 -67 28 -87 -11 -7 -21 -13 -24 -13 -10 0 -41 61
-36 70 3 5 -4 11 -15 15 -25 8 -27 35 -2 35 9 0 32 -9 49 -20z m-1458 -29 c20
-13 4 -67 -27 -92 -15 -13 -19 -19 -9 -16 14 5 17 1 17 -25 0 -24 3 -29 11
-21 9 9 18 8 35 -4 50 -33 13 -83 -62 -83 -50 0 -58 7 -39 34 21 29 20 96 -1
96 -11 0 -7 9 15 29 22 20 31 38 31 60 0 32 6 37 29 22z m446 -8 c38 -18 41
-31 20 -85 -13 -33 11 -18 28 17 19 39 15 40 135 -16 48 -22 63 -33 58 -45 -3
-9 -9 -28 -12 -42 -5 -24 -3 -23 18 9 l23 37 38 -15 c44 -18 47 -39 14 -97
-35 -63 -109 -72 -158 -20 -21 23 -24 34 -23 102 l2 77 -18 -41 c-10 -23 -29
-49 -41 -58 -64 -45 -162 4 -162 80 0 46 20 114 33 114 5 0 26 -8 45 -17z
m961 -14 c13 -13 24 -34 24 -47 0 -24 -2 -24 -46 -18 -57 7 -67 13 -61 37 3
11 1 19 -4 19 -5 0 -9 10 -9 21 0 19 4 21 36 16 20 -4 47 -16 60 -28z m-1286
9 c-1 -7 -7 -31 -15 -53 -17 -48 -17 -45 -6 -45 5 0 14 14 21 30 15 37 19 37
53 2 l26 -28 -19 -32 c-18 -29 -24 -32 -67 -32 -65 0 -93 27 -93 89 0 66 4 69
88 80 6 0 12 -5 12 -11z m1425 -41 c-4 -9 -13 -13 -21 -10 -10 4 -12 9 -5 16
5 5 7 17 4 26 -5 15 -4 15 11 0 9 -9 14 -22 11 -32z m-238 -22 c16 -33 15 -36
-2 -55 -10 -11 -29 -20 -43 -20 -23 0 -24 3 -19 35 3 19 1 37 -4 40 -22 14 -4
30 39 34 7 0 20 -15 29 -34z m302 -48 c1 -40 -23 -29 -27 12 -2 18 0 40 4 49
6 14 8 13 14 -8 5 -14 8 -38 9 -53z m-47 28 c20 -62 -1 -105 -52 -105 -32 0
-50 -21 -69 -81 -9 -29 -16 -36 -30 -32 -11 3 -28 0 -40 -6 -30 -16 -26 -3 9
30 16 16 37 43 46 61 9 18 23 38 31 43 11 8 12 17 4 38 -6 15 -8 34 -4 43 13
35 94 42 105 9z m-1253 -43 c-11 -49 -4 -52 17 -9 l17 35 21 -41 c24 -47 19
-72 -17 -87 -14 -5 -2 -6 34 -3 51 5 59 3 89 -24 28 -25 34 -38 38 -86 4 -52
2 -58 -26 -87 -25 -24 -38 -30 -74 -29 -34 0 -39 2 -22 9 29 12 64 58 64 86 0
29 -44 64 -81 64 -15 0 -41 -12 -58 -26 -61 -51 -30 -134 56 -149 49 -8 107 7
187 47 78 39 141 58 197 58 35 0 60 -9 113 -41 93 -56 121 -65 153 -48 21 11
27 11 30 2 3 -7 9 -13 15 -13 6 0 8 7 4 15 -3 8 0 15 7 15 7 0 22 3 35 6 34
10 27 -13 -13 -38 -42 -28 -44 -41 -7 -54 20 -8 -2 -9 -83 -6 -101 4 -113 6
-145 31 -19 15 -46 34 -59 41 -39 20 -124 4 -237 -45 -130 -57 -193 -65 -260
-36 -27 12 -59 34 -71 49 -21 26 -22 26 -16 4 l6 -24 -49 25 c-68 34 -90 63
-98 122 -6 49 -25 75 -54 75 -15 0 -41 28 -42 44 0 5 8 2 18 -7 10 -10 34 -17
53 -17 44 0 59 -15 59 -56 0 -52 16 -81 51 -93 17 -6 33 -11 34 -11 1 0 5 18
8 40 6 46 45 103 90 130 l30 18 -40 -5 c-35 -5 -43 -2 -61 22 -23 29 -28 68
-13 107 7 19 17 23 59 25 l50 1 -9 -36z m-139 -58 c0 -3 -5 -15 -11 -27 -12
-21 -11 -22 8 -4 20 17 21 17 42 -18 26 -45 26 -43 -6 -77 -30 -32 -61 -36
-69 -10 -16 48 -27 60 -65 66 -21 3 -39 8 -39 10 0 2 12 17 28 34 22 25 35 31
70 32 23 0 42 -3 42 -6z m356 -36 c-7 -36 7 -36 23 -1 l12 27 26 -45 c14 -24
26 -55 28 -69 2 -14 6 -35 10 -47 6 -20 1 -25 -40 -43 -26 -11 -50 -19 -52
-17 -10 10 11 35 39 48 18 8 34 20 36 28 4 11 -1 10 -19 -2 -34 -24 -46 -21
-53 14 -8 42 -76 109 -110 109 -14 0 -26 6 -26 13 0 8 20 12 66 12 l66 0 -6
-27z m1030 -13 c3 -14 1 -47 -6 -73 -16 -65 -61 -163 -71 -156 -5 3 -14 -8
-21 -23 -12 -29 -96 -153 -103 -153 -3 0 1 12 7 28 6 15 11 59 12 99 1 60 5
75 23 92 25 24 51 19 63 -13 7 -16 9 -17 9 -4 1 9 -9 24 -21 34 l-23 16 25 -5
c23 -6 24 -5 6 8 -10 8 -24 16 -30 18 -7 3 -5 11 7 23 14 16 21 17 37 6 23
-14 25 -9 9 20 -9 18 -8 24 7 35 17 12 17 13 -4 13 -47 0 -7 58 40 59 21 1 29
-5 34 -24z m-1659 -1 c-3 -3 -12 -4 -19 -1 -8 3 -5 6 6 6 11 1 17 -2 13 -5z
m33 -39 c18 -22 2 -54 -37 -70 -42 -18 -53 -13 -30 13 17 19 23 42 10 42 -3 0
-15 -7 -25 -17 -20 -18 -25 -4 -8 28 13 23 72 26 90 4z m116 -62 c16 -61 -17
-79 -64 -33 -25 23 -30 35 -24 48 5 9 7 22 5 29 -3 8 9 7 37 -5 25 -10 43 -25
46 -39z m746 15 l24 -43 -84 0 c-87 0 -102 7 -102 50 0 18 7 20 53 20 49 0 53
-2 50 -20 -4 -20 -4 -20 11 -1 9 11 16 23 16 28 0 16 9 7 32 -34z m1386 26
c15 -5 22 -14 22 -31 0 -23 -3 -25 -32 -18 -61 14 -122 9 -165 -14 -54 -27
-55 -19 -3 15 67 45 128 61 178 48z m-1778 -44 c22 -22 23 -25 14 -57 -8 -29
-68 -51 -89 -33 -24 20 -18 66 11 89 33 26 39 26 64 1z m960 -10 c0 -5 -5 -10
-11 -10 -5 0 -7 5 -4 10 3 6 8 10 11 10 2 0 4 -4 4 -10z m-1170 -26 c0 -21 -4
-25 -22 -22 -31 4 -36 35 -6 41 13 2 24 5 26 6 1 0 2 -11 2 -25z m-232 -18 c2
-20 -5 -42 -16 -56 -17 -21 -19 -21 -34 -6 -9 9 -21 16 -27 16 -18 0 -12 39 9
60 11 11 30 20 43 20 19 0 23 -6 25 -34z m1952 -10 c0 -2 -8 -10 -17 -17 -16
-13 -17 -12 -4 4 13 16 21 21 21 13z m-1846 -28 c13 -21 -15 -55 -49 -60 -20
-3 -21 -6 -12 -28 8 -20 11 -22 14 -7 3 9 10 17 18 17 10 0 11 -7 3 -34 -9
-28 -7 -42 12 -85 13 -28 29 -51 36 -51 9 0 6 16 -11 53 -14 28 -25 57 -25 63
0 23 42 64 66 64 27 0 31 -17 9 -46 -19 -25 -19 -35 1 -27 12 4 15 2 12 -8 -3
-8 -12 -13 -21 -13 -9 1 -13 -4 -10 -12 2 -7 10 -11 16 -8 7 2 17 -10 23 -28
6 -18 15 -41 19 -52 5 -10 -11 1 -34 25 -28 29 -38 36 -31 20 19 -37 102 -141
113 -141 6 0 8 -3 5 -6 -11 -10 -63 24 -77 50 -8 14 -28 30 -45 36 -39 13 -99
69 -120 114 -24 50 -21 141 5 167 24 24 67 22 83 -3z m644 -60 c-7 -21 -60
-47 -108 -53 l-45 -6 40 19 c22 10 46 26 54 35 16 20 65 23 59 5z m97 -7 c11
-10 34 -26 50 -34 30 -16 30 -16 5 -17 -29 0 -112 39 -117 55 -6 18 41 15 62
-4z m-552 -52 c9 -10 7 -10 -8 1 -17 12 -17 11 2 -10 18 -19 25 -21 37 -11 12
10 22 8 53 -8 21 -11 30 -20 21 -21 -9 0 -20 5 -23 10 -14 22 -25 8 -25 -31 0
-49 51 -140 106 -188 19 -17 31 -31 26 -31 -18 0 -95 75 -127 124 -19 28 -59
69 -91 91 -57 39 -82 79 -70 110 4 12 12 12 46 -4 23 -10 47 -24 53 -32z m491
22 c3 -5 -1 -14 -9 -21 -12 -10 -18 -10 -32 1 -15 13 -15 12 0 -18 10 -18 17
-41 17 -51 0 -25 -23 -44 -43 -36 -14 5 -14 1 0 -38 24 -71 2 -158 -47 -178
-38 -16 -100 2 -144 40 -18 17 -38 30 -44 30 -14 0 -22 36 -10 48 11 11 -38
62 -59 62 -18 0 -43 29 -43 51 0 36 38 21 77 -31 20 -27 39 -47 41 -45 3 2 -8
29 -23 58 -31 59 -29 87 7 86 13 0 17 -3 11 -6 -14 -5 -16 -47 -4 -78 8 -19 9
-18 21 8 16 33 29 36 23 5 -20 -125 -21 -133 -2 -159 22 -31 76 -59 113 -59
25 0 66 30 66 49 0 5 3 18 7 28 4 13 -2 11 -24 -9 -35 -34 -80 -36 -116 -8
-22 18 -25 27 -24 80 2 73 21 84 25 15 2 -27 10 -58 19 -67 14 -16 18 -16 44
-2 16 8 29 20 30 27 0 6 4 3 9 -8 8 -18 9 -18 9 6 1 33 -34 68 -51 51 -19 -19
-28 -14 -28 12 0 14 -4 28 -10 31 -19 12 -10 25 16 25 18 0 38 -12 60 -36 39
-41 43 -36 12 15 -16 26 -17 32 -6 23 22 -17 62 -12 66 9 2 9 -8 30 -21 45
l-25 29 32 11 c40 15 54 16 60 5z m1026 -5 c0 -2 -12 -11 -27 -20 l-28 -17 24
20 c23 21 31 25 31 17z m-994 -37 c-32 -38 -33 -57 -3 -68 20 -8 20 -10 4 -16
-20 -8 -47 10 -47 32 0 7 7 29 14 48 11 25 21 35 36 35 21 0 21 -1 -4 -31z
m298 4 c4 -9 2 -21 -4 -27 -7 -7 -10 -7 -10 1 0 6 -3 18 -6 27 -3 9 -2 16 4
16 5 0 13 -8 16 -17z m268 -23 c-1 -19 -9 -45 -18 -57 -15 -24 -125 -104 -204
-149 l-45 -26 35 28 c61 48 111 105 156 176 32 49 50 68 62 66 13 -3 16 -12
14 -38z m-663 -2 c21 -37 10 -43 -32 -16 -19 13 -43 29 -53 35 -16 11 -13 12
26 10 37 -2 47 -7 59 -29z m181 23 c0 -5 -13 -14 -29 -21 -16 -6 -32 -18 -35
-26 -7 -19 -36 -18 -36 1 0 25 38 55 70 55 17 0 30 -4 30 -9z m68 -107 c4
-110 -6 -135 -62 -154 -28 -9 -40 -8 -65 5 -28 14 -31 14 -31 0 0 -27 -17 -16
-24 16 -11 55 -7 107 10 123 19 19 41 22 27 4 -29 -37 -19 -48 11 -13 20 22
35 43 36 48 0 11 50 8 50 -3 0 -6 -10 -14 -22 -19 -18 -6 -19 -9 -5 -14 24 -9
21 -27 -5 -27 -50 0 -79 -68 -37 -90 53 -29 94 14 84 88 -5 32 -3 43 9 48 13
5 12 10 -5 34 -18 23 -19 31 -9 50 21 39 34 5 38 -96z m-457 87 c-7 -5 -13
-12 -13 -17 0 -5 -4 -16 -9 -24 -7 -12 -8 -12 -9 4 0 21 30 60 39 51 3 -4 0
-10 -8 -14z m80 6 c-6 -8 -8 -16 -5 -19 2 -3 -2 -8 -10 -11 -9 -4 -18 -2 -21
3 -10 15 7 40 27 40 16 0 18 -3 9 -13z m-340 -54 c15 -9 33 -29 40 -45 30 -74
67 -115 130 -148 61 -31 62 -32 25 -26 -22 3 -42 9 -45 13 -3 5 -30 26 -58 47
-29 21 -53 42 -53 47 0 5 -9 9 -21 9 -18 0 -19 2 -5 15 21 21 10 42 -25 50
-33 8 -41 17 -33 39 8 20 9 20 45 -1z m524 -45 c4 4 4 -3 1 -15 -4 -12 -10
-51 -14 -85 l-8 -63 -7 63 c-4 34 -10 74 -13 88 -6 24 -5 25 13 15 11 -5 24
-7 28 -3z m-338 -80 c-3 -8 -6 -5 -6 6 -1 11 2 17 5 13 3 -3 4 -12 1 -19z
m460 -26 c-10 -9 -22 -12 -34 -7 -16 6 -16 8 5 16 12 5 26 17 29 26 7 17 8 17
11 -1 2 -10 -3 -25 -11 -34z m-541 -57 l29 -16 -40 7 c-22 4 -49 10 -60 15
-17 6 -15 8 11 8 18 1 45 -6 60 -14z m-79 -11 c-3 -3 -12 -4 -19 -1 -8 3 -5 6
6 6 11 1 17 -2 13 -5z m507 -9 c4 -12 -3 -15 -36 -15 -35 0 -39 2 -28 15 7 8
23 15 35 15 13 0 25 -7 29 -15z m-467 -1 c-3 -3 -12 -4 -19 -1 -8 3 -5 6 6 6
11 1 17 -2 13 -5z m-141 -29 c-4 -11 2 -15 24 -15 37 0 38 -12 3 -27 -16 -7
-39 -20 -53 -30 -13 -10 -21 -12 -16 -5 5 9 -2 12 -26 12 l-33 0 34 21 c42 26
35 35 -13 15 -38 -16 -45 -11 -23 16 15 20 33 26 76 27 25 1 32 -2 27 -14z
m824 -40 c0 -36 -4 -57 -12 -60 -7 -2 -122 -6 -255 -10 l-243 -6 0 48 0 49
203 0 c161 0 211 3 247 16 25 9 48 16 53 17 4 1 7 -24 7 -54z m245 29 c37 -13
39 -13 20 2 -19 15 -18 16 20 9 38 -7 95 -31 95 -40 0 -3 -9 -14 -20 -25 -22
-22 -55 -26 -65 -10 -4 6 -16 8 -26 5 -14 -5 -38 5 -75 31 -31 21 -58 42 -60
46 -6 9 61 -2 111 -18z m-157 -21 c-3 -35 -6 -38 -35 -41 -31 -3 -33 -2 -33
31 0 41 5 47 42 47 28 0 29 -2 26 -37z m-633 -23 c0 -33 -2 -35 -35 -35 -29 0
-36 4 -38 23 -6 40 5 54 40 50 30 -3 33 -6 33 -38z m473 -127 c-4 -37 -23 -41
-206 -42 l-152 -1 -10 26 c-6 14 -8 30 -4 35 3 5 88 9 190 9 l185 0 -3 -27z"/>
<path d="M1740 4620 c0 -5 5 -10 11 -10 5 0 7 5 4 10 -3 6 -8 10 -11 10 -2 0
-4 -4 -4 -10z"/>
<path d="M2174 4585 c-37 -19 -58 -24 -89 -20 -38 5 -37 4 20 -21 92 -40 107
-45 101 -35 -3 4 -19 14 -36 21 -37 15 -31 26 34 56 28 12 44 23 35 23 -8 1
-38 -10 -65 -24z"/>
<path d="M1380 4545 c7 -8 20 -15 30 -15 20 0 91 29 73 30 -7 0 -24 -5 -38
-12 -21 -9 -31 -9 -46 0 -26 16 -34 15 -19 -3z"/>
<path d="M1663 4535 c-84 -15 -190 -48 -245 -76 -29 -15 -38 -26 -38 -44 0
-31 29 -33 91 -6 24 11 61 22 81 26 l36 7 -2 -54 c-2 -29 -9 -67 -16 -84 -13
-31 -9 -64 9 -64 5 0 7 9 4 20 -3 11 0 35 7 53 28 72 51 117 60 117 6 0 10 6
10 13 0 8 9 22 20 32 11 10 20 15 20 11 0 -4 17 6 37 21 20 15 39 27 42 27 6
-1 14 0 41 9 31 11 -88 5 -157 -8z"/>
<path d="M1310 4491 c-30 -16 -64 -39 -75 -52 l-20 -24 25 21 c14 12 52 36 85
52 33 17 56 31 50 31 -5 0 -35 -13 -65 -28z"/>
<path d="M1170 4416 c0 -9 30 -14 35 -6 4 6 -3 10 -14 10 -12 0 -21 -2 -21 -4z"/>
<path d="M1108 4353 c6 -2 18 -2 25 0 6 3 1 5 -13 5 -14 0 -19 -2 -12 -5z"/>
<path d="M1065 4288 l-40 -43 43 40 c39 36 47 45 39 45 -2 0 -21 -19 -42 -42z"/>
<path d="M1790 4260 c0 -5 5 -10 11 -10 5 0 7 5 4 10 -3 6 -8 10 -11 10 -2 0
-4 -4 -4 -10z"/>
<path d="M1980 4245 c7 -8 22 -15 34 -15 18 0 17 2 -8 15 -36 19 -42 19 -26 0z"/>
<path d="M940 4213 c14 -3 30 -9 36 -14 7 -6 15 -4 22 4 9 10 1 13 -36 13 -26
1 -36 -1 -22 -3z"/>
<path d="M1940 4180 c0 -5 4 -10 9 -10 11 0 35 -59 32 -79 -1 -7 2 -10 8 -6
13 7 15 45 2 45 -5 0 -11 14 -14 30 -6 27 -37 44 -37 20z"/>
<path d="M946 4141 c-10 -10 -13 -22 -8 -25 5 -3 14 6 20 19 14 30 11 31 -12
6z"/>
<path d="M1836 4144 c-12 -31 3 -34 22 -4 10 16 10 20 -2 20 -8 0 -17 -7 -20
-16z"/>
<path d="M1919 4133 c-6 -16 -17 -41 -25 -57 -16 -34 -11 -48 6 -16 16 30 40
100 34 100 -2 0 -9 -12 -15 -27z"/>
<path d="M1249 4133 c-13 -16 -12 -17 4 -4 9 7 17 15 17 17 0 8 -8 3 -21 -13z"/>
<path d="M915 4078 c-8 -13 -30 -29 -48 -36 -28 -11 -29 -12 -4 -7 15 3 27 3
27 1 0 -10 -44 -122 -53 -133 -5 -7 -18 -13 -28 -13 -11 0 -19 -4 -19 -10 0
-5 4 -10 10 -10 5 0 6 -7 3 -17 -5 -12 -3 -14 7 -8 13 8 10 -16 -6 -59 -3 -9
-2 -16 3 -16 4 0 21 42 37 93 15 50 43 125 61 165 35 74 38 88 10 50z"/>
<path d="M1386 4091 c-4 -5 3 -7 14 -4 23 6 26 13 6 13 -8 0 -17 -4 -20 -9z"/>
<path d="M1331 4076 c-10 -12 -8 -13 8 -9 12 3 21 9 21 14 0 14 -16 11 -29 -5z"/>
<path d="M1729 4020 c-57 -47 -147 -90 -188 -90 -62 0 -104 -18 -126 -53 -15
-24 -34 -36 -75 -49 -60 -19 -91 -48 -89 -82 1 -17 2 -17 6 -3 2 9 9 17 15 17
17 0 78 -40 78 -51 0 -12 70 -43 78 -35 3 3 -8 11 -25 18 -41 18 -131 98 -109
98 10 0 26 -5 38 -11 24 -13 35 -5 19 15 -10 12 -7 18 21 32 18 9 44 29 58 44
29 33 76 50 136 50 35 0 57 10 125 55 l82 55 32 -20 c51 -32 63 -23 14 10 -24
16 -46 30 -49 29 -3 0 -21 -13 -41 -29z"/>
<path d="M781 4014 c-19 -8 -32 -17 -28 -20 3 -3 22 4 44 15 44 23 34 27 -16
5z"/>
<path d="M1249 4000 c-26 -21 -19 -26 12 -10 14 8 19 7 19 -2 0 -9 3 -9 9 2
10 15 6 30 -8 30 -5 0 -19 -9 -32 -20z"/>
<path d="M1225 3950 c-3 -5 -1 -10 4 -10 6 0 11 5 11 10 0 6 -2 10 -4 10 -3 0
-8 -4 -11 -10z"/>
<path d="M1285 3930 c3 -5 8 -10 11 -10 2 0 4 5 4 10 0 6 -5 10 -11 10 -5 0
-7 -4 -4 -10z"/>
<path d="M1212 3908 c-15 -15 -16 -48 -1 -48 5 0 7 4 4 10 -3 5 -1 19 5 30 12
23 10 26 -8 8z"/>
<path d="M745 3799 c-11 -17 1 -21 15 -4 8 9 8 15 2 15 -6 0 -14 -5 -17 -11z"/>
<path d="M1201 3773 c0 -31 2 -34 9 -18 12 28 12 55 0 55 -5 0 -10 -17 -9 -37z"/>
<path d="M1390 3751 c24 -20 40 -26 40 -16 0 2 -15 12 -32 20 l-33 16 25 -20z"/>
<path d="M1460 3736 c0 -2 9 -6 20 -9 11 -3 20 -1 20 4 0 5 -9 9 -20 9 -11 0
-20 -2 -20 -4z"/>
<path d="M1180 3715 c-7 -9 -8 -15 -2 -15 5 0 12 7 16 15 3 8 4 15 2 15 -2 0
-9 -7 -16 -15z"/>
<path d="M705 3673 c-4 -27 -12 -54 -18 -62 -10 -12 -9 -12 10 0 12 7 30 28
39 45 16 29 16 33 1 48 -8 9 -18 16 -20 16 -3 0 -8 -21 -12 -47z"/>
<path d="M1241 3694 c0 -11 3 -14 6 -6 3 7 2 16 -1 19 -3 4 -6 -2 -5 -13z"/>
<path d="M1465 3690 c-10 -11 -13 -20 -7 -20 6 0 16 9 22 20 6 11 9 20 7 20
-2 0 -12 -9 -22 -20z"/>
<path d="M1206 3638 c-9 -12 -16 -28 -16 -35 0 -16 -14 -16 -43 -2 -20 10 -20
10 -7 -4 26 -26 59 -31 66 -10 3 10 11 30 19 46 17 32 3 36 -19 5z"/>
<path d="M648 3569 c-10 -10 -14 -19 -10 -19 5 0 17 9 27 20 10 11 14 20 9 19
-5 0 -17 -9 -26 -20z"/>
<path d="M589 3353 c-13 -16 -12 -17 4 -4 16 13 21 21 13 21 -2 0 -10 -8 -17
-17z"/>
<path d="M630 3195 c-7 -9 -11 -18 -8 -20 3 -3 11 1 18 10 7 9 11 18 8 20 -3
3 -11 -1 -18 -10z"/>
<path d="M737 2964 c-8 -9 2 -87 14 -98 6 -6 9 -5 10 5 0 7 2 25 3 39 3 26
-16 64 -27 54z"/>
<path d="M2314 4178 c-6 -7 -19 -30 -29 -51 -53 -104 -291 -267 -500 -341 -17
-6 -14 -12 28 -47 26 -23 61 -62 79 -87 17 -26 32 -48 33 -49 1 -2 28 10 61
26 217 104 408 161 721 212 111 18 200 35 197 38 -6 7 -160 13 -313 13 -94 0
-101 1 -82 14 11 8 21 22 21 30 0 8 8 14 17 14 13 0 14 3 5 12 -7 7 -12 19
-12 28 0 9 -7 25 -15 36 -14 18 -15 16 -9 -22 9 -63 -13 -90 -75 -93 -66 -2
-101 28 -107 94 -3 27 0 45 6 45 5 0 10 6 10 13 0 18 50 37 106 39 27 1 57 7
66 13 16 11 16 13 -8 23 -32 15 -39 15 -26 -1 9 -10 4 -13 -21 -13 -18 0 -45
-3 -62 -7 l-30 -7 29 25 c34 31 27 40 -35 49 -32 5 -49 3 -55 -6z m51 -38 c-3
-5 -13 -10 -21 -10 -8 0 -12 5 -9 10 3 6 13 10 21 10 8 0 12 -4 9 -10z m-45
-79 c-17 -33 -11 -86 13 -122 30 -45 63 -61 112 -54 53 8 42 0 -41 -29 -38
-13 -115 -42 -171 -64 -57 -22 -103 -38 -103 -36 0 3 30 18 67 35 37 17 69 32
71 33 1 2 -6 19 -17 37 -11 19 -23 51 -26 72 -8 42 -15 45 -40 17 -26 -29
-138 -101 -223 -144 -40 -20 -70 -41 -67 -46 3 -6 11 -10 17 -10 15 0 37 -31
38 -52 0 -21 4 -22 32 -7 16 9 19 8 13 -2 -10 -16 -7 -15 190 61 189 72 299
104 413 120 136 19 115 -1 -34 -31 -184 -37 -351 -88 -501 -153 l-122 -53 -17
25 c-9 14 -34 44 -55 67 l-39 43 75 35 c91 44 188 105 318 203 54 41 100 74
103 74 2 0 0 -9 -6 -19z m-103 -243 c-52 -33 -106 31 -55 66 21 15 23 14 44
-22 16 -26 19 -39 11 -44z m-97 18 c0 -7 7 -19 15 -26 20 -17 19 -30 -4 -30
-25 0 -54 43 -38 59 15 15 27 14 27 -3z m-36 -78 c-10 -16 -35 -7 -46 18 -10
20 -9 27 2 34 10 6 19 1 32 -17 9 -15 15 -30 12 -35z m-73 0 c9 -18 8 -24 -6
-34 -15 -11 -21 -10 -38 12 -17 22 -18 27 -6 35 23 14 38 10 50 -13z"/>
<path d="M2262 4007 c-21 -25 -6 -92 30 -127 32 -33 36 -34 57 -21 11 7 8 12
-11 25 -26 17 -55 73 -60 115 -3 22 -4 23 -16 8z"/>
<path d="M2413 4070 c-30 -12 -56 -55 -48 -79 22 -69 138 -75 138 -7 0 34 -20
56 -50 56 -15 0 -22 4 -17 11 3 6 17 8 30 5 18 -5 22 -3 18 9 -7 16 -37 19
-71 5z m3 -46 c-4 -15 -2 -32 5 -40 15 -18 49 -18 49 0 0 20 -17 29 -23 14 -3
-8 -6 -5 -6 5 -1 27 33 17 37 -10 2 -14 -4 -26 -17 -33 -41 -22 -84 27 -61 70
15 28 23 25 16 -6z"/>
<path d="M2568 4046 c-26 -19 -22 -30 4 -12 12 9 32 16 43 15 19 0 19 -1 2 -8
-17 -6 -17 -8 -3 -20 9 -7 13 -17 10 -22 -3 -5 4 -9 15 -9 31 0 35 19 10 46
-25 27 -55 30 -81 10z"/>
<path d="M2575 4010 c3 -5 8 -10 11 -10 2 0 4 5 4 10 0 6 -5 10 -11 10 -5 0
-7 -4 -4 -10z"/>
<path d="M2776 3932 c-3 -5 -31 -7 -63 -4 -66 5 -67 -2 -2 -21 51 -16 65 -13
79 14 11 19 -3 29 -14 11z"/>
<path d="M2905 3829 c-16 -5 -79 -16 -140 -24 -190 -26 -378 -68 -510 -115
-81 -28 -340 -144 -362 -162 -9 -7 -19 5 -39 43 -36 73 -61 104 -106 135 -37
26 -38 26 -65 9 l-27 -18 43 -20 c46 -22 80 -63 126 -150 l29 -54 180 88 c100
49 204 96 231 105 28 9 55 20 60 24 12 9 168 53 240 68 28 6 101 13 163 17 96
5 193 20 266 42 15 4 16 7 5 14 -18 11 -55 10 -94 -2z m-1136 -169 c33 -27 81
-95 81 -115 0 -4 -20 20 -44 53 -24 33 -55 67 -67 76 -13 9 -20 16 -16 16 5 0
25 -14 46 -30z"/>
<path d="M2407 3519 c-22 -11 -37 -23 -34 -26 3 -2 14 0 25 6 28 15 57 14 71
-3 10 -12 9 -14 -7 -9 -20 5 -99 -24 -89 -33 3 -3 15 0 27 6 20 11 21 10 15
-23 -6 -29 -4 -35 15 -40 16 -4 23 1 31 21 5 14 21 36 34 48 64 59 -2 98 -88
53z"/>
<path d="M2258 3443 c6 -2 18 -2 25 0 6 3 1 5 -13 5 -14 0 -19 -2 -12 -5z"/>
<path d="M2446 3115 c4 -8 11 -15 16 -15 6 0 5 6 -2 15 -7 8 -14 15 -16 15 -2
0 -1 -7 2 -15z"/>
<path d="M908 2483 c6 -2 18 -2 25 0 6 3 1 5 -13 5 -14 0 -19 -2 -12 -5z"/>
<path d="M783 2213 c26 -2 68 -2 95 0 26 2 4 3 -48 3 -52 0 -74 -1 -47 -3z"/>
<path d="M2348 1987 c-3 -7 -2 -23 2 -37 l7 -25 12 28 c14 35 14 34 -3 40 -8
3 -16 0 -18 -6z"/>
<path d="M2134 1949 c-7 -13 46 -23 57 -12 7 7 0 12 -21 15 -17 3 -33 1 -36
-3z"/>
<path d="M2387 1936 c-4 -10 -1 -13 8 -9 8 3 12 9 9 14 -7 12 -11 11 -17 -5z"/>
<path d="M2400 1910 c0 -5 5 -10 11 -10 5 0 7 5 4 10 -3 6 -8 10 -11 10 -2 0
-4 -4 -4 -10z"/>
<path d="M2158 1888 c-17 -14 -33 -78 -19 -78 5 0 12 15 15 34 4 20 15 37 29
44 15 7 17 11 6 11 -8 1 -22 -5 -31 -11z"/>
<path d="M2331 1867 c-8 -11 -6 -18 8 -31 19 -17 29 -13 25 12 -1 6 -2 17 -3
22 -2 14 -17 12 -30 -3z"/>
<path d="M2266 1845 c4 -8 -1 -17 -10 -21 -27 -10 -18 -20 19 -19 45 2 52 10
30 35 -21 23 -47 27 -39 5z"/>
<path d="M2167 1811 c-3 -14 -13 -21 -30 -21 -14 0 -29 -4 -32 -10 -8 -13 56
-1 72 14 7 6 9 16 4 24 -6 10 -10 9 -14 -7z"/>
<path d="M2362 1794 c-6 -11 -17 -15 -31 -11 -17 4 -24 0 -32 -19 -12 -32 -11
-44 1 -44 6 0 10 9 10 20 0 11 8 23 18 26 52 17 71 27 66 35 -8 14 -22 11 -32
-7z"/>
<path d="M2573 2083 c-19 -7 -16 -51 4 -62 37 -20 71 27 41 57 -13 13 -24 14
-45 5z m28 -36 c-1 -12 -15 -9 -19 4 -3 6 1 10 8 8 6 -3 11 -8 11 -12z"/>
<path d="M1115 1730 c3 -5 8 -10 11 -10 2 0 4 5 4 10 0 6 -5 10 -11 10 -5 0
-7 -4 -4 -10z"/>
<path d="M1153 1615 c-3 -9 -3 -18 -1 -21 3 -3 8 4 11 16 6 23 -1 27 -10 5z"/>
<path d="M1289 1586 c14 -14 27 -26 29 -26 10 0 -26 44 -39 48 -8 3 -3 -7 10
-22z"/>
<path d="M1675 1380 c-13 -6 -15 -9 -5 -9 8 0 22 4 30 9 18 12 2 12 -25 0z"/>
<path d="M3476 3063 c1 -3 -1 -16 -6 -29 -7 -19 -6 -24 5 -24 8 0 15 -4 15
-10 0 -5 -8 -10 -17 -10 -13 0 -14 -3 -5 -12 16 -16 15 -28 -2 -28 -7 0 -26
-10 -41 -21 -20 -17 -26 -28 -22 -47 3 -17 -1 -31 -13 -41 -10 -9 -22 -27 -26
-41 -6 -22 -5 -23 10 -11 32 26 38 -2 12 -50 -28 -50 -79 -220 -74 -247 2 -9
16 30 31 88 16 58 40 127 53 154 22 44 23 50 9 66 -14 15 -14 18 0 30 8 7 15
25 15 41 0 23 9 34 41 55 41 25 41 26 37 75 -3 28 -10 54 -15 58 -5 5 -9 6 -7
4z"/>
<path d="M88 3044 c-4 -3 12 -29 34 -58 71 -88 103 -176 158 -429 12 -54 24
-96 27 -94 6 6 -30 190 -56 287 -11 41 -21 92 -21 113 0 32 -3 37 -17 33 -14
-3 -30 15 -69 75 -27 44 -53 77 -56 73z"/>
<path d="M150 3047 c0 -4 9 -21 20 -39 11 -18 20 -27 20 -20 0 8 -9 25 -20 39
-11 14 -20 23 -20 20z"/>
<path d="M3382 2998 c-18 -11 -42 -38 -53 -61 -13 -25 -24 -36 -28 -28 -4 6
-5 -17 -3 -51 5 -61 -5 -135 -35 -276 -8 -40 -13 -75 -10 -78 5 -5 41 166 58
281 17 110 34 154 76 198 42 42 41 44 -5 15z"/>
<path d="M44 2971 c1 -42 3 -45 33 -53 26 -7 38 -19 59 -60 14 -28 23 -59 21
-70 -3 -11 8 -47 25 -81 16 -34 27 -51 24 -37 -4 14 -11 50 -17 80 -6 30 -27
88 -46 128 -34 70 -37 73 -63 67 -27 -6 -29 -4 -33 32 -4 34 -4 34 -3 -6z"/>
<path d="M3399 2953 c-13 -16 -12 -17 4 -4 16 13 21 21 13 21 -2 0 -10 -8 -17
-17z"/>
<path d="M210 2936 c0 -2 8 -10 18 -17 15 -13 16 -12 3 4 -13 16 -21 21 -21
13z"/>
<path d="M3375 2919 c-4 -6 -5 -12 -2 -15 2 -3 7 2 10 11 7 17 1 20 -8 4z"/>
<path d="M3025 2908 c3 -7 22 -24 43 -37 l37 -24 -25 27 c-14 15 -23 31 -20
34 3 4 -5 8 -17 10 -16 2 -21 -1 -18 -10z"/>
<path d="M3356 2875 c-3 -9 -6 -22 -5 -28 0 -7 5 -1 10 12 5 13 8 26 5 28 -2
2 -6 -3 -10 -12z"/>
<path d="M321 2832 c-22 -54 31 -371 91 -541 39 -112 120 -282 142 -300 13
-11 11 -2 -9 45 -41 90 -90 221 -115 304 -70 236 -71 240 -69 355 3 148 -13
203 -40 137z"/>
<path d="M3215 2748 c-23 -377 -157 -703 -388 -944 -85 -90 -333 -296 -363
-302 -8 -2 -43 -25 -78 -50 -35 -26 -71 -53 -82 -60 -10 -7 9 2 44 20 105 57
371 258 467 354 91 92 181 213 247 334 74 135 142 355 173 564 19 124 19 170
1 185 -12 10 -15 -7 -21 -101z"/>
<path d="M110 2800 c0 -5 7 -28 16 -50 13 -33 14 -43 4 -55 -11 -13 -9 -20 13
-43 14 -15 39 -63 55 -107 82 -224 94 -259 96 -286 1 -16 12 -39 23 -51 11
-13 38 -57 58 -98 72 -146 193 -313 298 -409 58 -54 44 -28 -28 50 -102 111
-234 316 -282 439 -48 124 -105 294 -124 368 -8 35 -15 48 -19 37 -5 -13 -11
-7 -25 24 -12 27 -27 44 -42 47 -27 7 -29 13 -7 29 15 10 14 15 -5 53 -26 50
-26 59 -3 41 15 -13 16 -12 3 4 -15 19 -31 23 -31 7z"/>
<path d="M3122 2758 c11 -23 28 -78 37 -123 15 -77 16 -79 19 -35 5 59 -14
142 -39 174 -31 39 -40 31 -17 -16z"/>
<path d="M3331 2764 c0 -11 3 -14 6 -6 3 7 2 16 -1 19 -3 4 -6 -2 -5 -13z"/>
<path d="M3068 2617 c45 -48 66 -135 38 -166 -8 -9 -16 -50 -19 -96 -3 -46 -1
-72 3 -60 5 11 9 40 10 65 0 25 9 63 20 85 11 22 19 48 20 58 0 43 -57 137
-83 137 -6 0 -1 -10 11 -23z"/>
<path d="M528 2513 c-10 -2 -18 -9 -18 -14 0 -14 16 -11 30 6 7 8 11 14 9 14
-2 -1 -12 -3 -21 -6z"/>
<path d="M3241 2474 c0 -11 3 -14 6 -6 3 7 2 16 -1 19 -3 4 -6 -2 -5 -13z"/>
<path d="M3296 2439 c-8 -42 0 -50 9 -9 4 17 5 34 2 36 -2 3 -7 -10 -11 -27z"/>
<path d="M2854 2334 c16 -9 40 -28 53 -43 20 -22 22 -22 14 -4 -14 27 -59 63
-80 63 -10 -1 -5 -7 13 -16z"/>
<path d="M232 2280 c14 -4 32 -11 40 -16 10 -6 10 -4 -1 9 -7 9 -25 17 -40 16
l-26 -1 27 -8z"/>
<path d="M2962 2265 c0 -16 2 -22 5 -12 2 9 2 23 0 30 -3 6 -5 -1 -5 -18z"/>
<path d="M118 2269 c-11 -6 -18 -22 -18 -38 0 -41 27 -101 46 -101 8 0 38 -7
65 -16 44 -15 48 -18 32 -29 -17 -12 -16 -15 10 -39 16 -15 46 -35 68 -46 33
-17 39 -18 39 -5 0 18 -51 52 -92 60 -29 7 -39 25 -14 25 8 0 22 3 32 7 12 4
15 3 10 -5 -5 -8 -1 -10 10 -5 13 5 16 3 11 -10 -4 -10 -2 -14 6 -12 16 6 26
-2 63 -50 37 -49 54 -79 54 -98 0 -13 -7 -12 -47 3 -71 26 -176 9 -212 -34 -8
-9 -17 -13 -22 -10 -5 3 -9 0 -9 -6 0 -21 64 -51 98 -46 18 3 49 -1 70 -8 22
-8 60 -11 93 -8 59 4 102 -10 146 -51 17 -15 20 -23 12 -34 -6 -7 -17 -13 -24
-13 -7 0 -16 -7 -19 -15 -3 -9 -1 -15 7 -14 27 3 47 -2 47 -12 0 -7 -12 -8
-32 -4 -18 4 -30 4 -26 0 5 -5 -6 -16 -22 -26 -30 -19 -39 -42 -20 -54 5 -3
15 5 21 18 13 28 48 47 87 47 30 0 109 -23 143 -40 15 -9 19 -9 15 -1 -4 6
-26 21 -49 33 -23 11 -56 32 -74 45 -18 14 -37 21 -44 17 -8 -4 -9 -3 -5 4 11
18 26 15 60 -11 60 -45 60 -41 2 25 -32 37 -65 69 -72 72 -8 3 -14 12 -14 19
0 22 -27 41 -33 25 -3 -7 -6 -2 -7 12 -1 14 -4 20 -7 13 -3 -10 -7 -10 -18 0
-9 8 -10 16 -3 25 8 9 6 12 -6 12 -10 0 -15 4 -12 9 8 12 -83 137 -138 191
-38 37 -52 44 -86 45 -25 0 -40 5 -40 13 0 19 61 14 98 -8 31 -19 32 -19 23
-1 -12 22 -70 51 -104 51 -13 0 -36 -9 -50 -20 -14 -11 -28 -20 -32 -20 -4 0
-5 9 -2 20 3 11 1 20 -4 20 -18 0 -8 27 14 39 l22 11 -22 -6 c-34 -8 -29 22 5
34 21 8 22 11 7 11 -11 0 -28 -4 -37 -10z m274 -374 c25 -9 57 -28 71 -43 l26
-27 -38 3 c-21 2 -48 -1 -60 -7 -16 -9 -26 -9 -43 1 -13 7 -26 11 -30 10 -5
-1 -8 5 -8 13 0 18 0 18 -41 1 -42 -18 -91 -10 -87 13 9 44 126 64 210 36z"/>
<path d="M310 1879 c0 -5 5 -7 10 -4 6 3 10 8 10 11 0 2 -4 4 -10 4 -5 0 -10
-5 -10 -11z"/>
<path d="M3001 2264 c0 -11 3 -14 6 -6 3 7 2 16 -1 19 -3 4 -6 -2 -5 -13z"/>
<path d="M3343 2257 c-18 -7 -40 -20 -50 -30 -15 -15 -11 -14 20 3 27 16 46
21 69 16 26 -5 29 -4 18 9 -14 17 -15 17 -57 2z"/>
<path d="M2991 2224 c0 -11 3 -14 6 -6 3 7 2 16 -1 19 -3 4 -6 -2 -5 -13z"/>
<path d="M2970 2191 c0 -5 -3 -18 -6 -28 -5 -16 -4 -16 10 1 18 23 20 36 6 36
-5 0 -10 -4 -10 -9z"/>
<path d="M3249 2183 c-13 -16 -12 -17 4 -4 9 7 17 15 17 17 0 8 -8 3 -21 -13z"/>
<path d="M2964 2058 c-9 -18 -30 -53 -46 -78 -25 -38 -26 -41 -4 -15 27 31 81
125 72 125 -3 0 -13 -15 -22 -32z"/>
<path d="M256 1965 c4 -8 13 -15 21 -15 13 0 13 3 3 15 -7 8 -16 15 -21 15 -5
0 -6 -7 -3 -15z"/>
<path d="M3198 1950 c-48 -26 -58 -43 -14 -25 20 8 65 15 101 15 37 0 64 4 61
8 -3 5 -18 7 -34 4 -16 -2 -33 1 -36 7 -10 16 -36 13 -78 -9z"/>
<path d="M551 1930 c36 -76 101 -149 259 -291 97 -87 240 -204 240 -195 0 2
-35 33 -77 67 -125 101 -294 263 -350 336 -93 120 -86 112 -72 83z"/>
<path d="M2839 1878 c-24 -29 -36 -47 -26 -39 20 16 81 91 74 91 -2 0 -24 -24
-48 -52z"/>
<path d="M3241 1916 c2 -2 22 -6 44 -9 27 -4 35 -3 25 3 -14 9 -79 15 -69 6z"/>
<path d="M2715 1738 l-80 -83 83 80 c76 74 87 85 79 85 -1 0 -38 -37 -82 -82z"/>
<path d="M720 1766 c0 -2 8 -10 18 -17 15 -13 16 -12 3 4 -13 16 -21 21 -21
13z"/>
<path d="M2908 1603 c12 -2 30 -2 40 0 9 3 -1 5 -23 4 -22 0 -30 -2 -17 -4z"/>
<path d="M720 1520 c-11 -7 -3 -10 30 -10 33 0 41 3 30 10 -8 5 -22 10 -30 10
-8 0 -22 -5 -30 -10z"/>
<path d="M942 638 c3 -7 15 -14 27 -16 34 -5 41 -40 41 -201 0 -159 8 -198 52
-237 39 -36 64 -44 133 -44 74 0 110 14 148 59 37 45 45 81 50 244 5 153 11
173 50 179 12 2 22 8 22 13 0 6 -40 11 -93 13 -73 2 -93 0 -90 -10 3 -7 15
-14 29 -16 43 -6 49 -26 49 -166 0 -154 -10 -198 -56 -244 -33 -33 -37 -34
-94 -30 -110 8 -140 68 -140 278 0 131 6 155 44 162 11 1 21 9 24 16 3 9 -21
12 -98 12 -77 0 -101 -3 -98 -12z"/>
<path d="M1515 641 c-3 -6 9 -14 27 -19 l33 -8 3 -208 c3 -222 0 -236 -45
-236 -15 0 -23 -5 -21 -12 3 -9 36 -14 106 -16 86 -2 102 0 102 13 0 9 -9 15
-23 15 -40 0 -47 18 -47 117 l0 93 64 0 c66 0 96 -14 96 -46 0 -8 5 -14 10
-14 6 0 10 32 10 75 0 43 -4 75 -10 75 -5 0 -10 -4 -10 -10 0 -5 -9 -19 -20
-30 -16 -16 -33 -20 -80 -20 l-60 0 0 105 0 106 78 -3 77 -3 20 -42 c11 -24
23 -43 28 -43 4 0 7 26 5 58 l-3 57 -167 3 c-102 1 -169 -1 -173 -7z"/>
<path d="M1925 640 c-3 -5 9 -13 27 -18 l33 -8 3 -208 c3 -222 0 -236 -44
-236 -15 0 -24 -6 -24 -15 0 -12 18 -15 100 -15 82 0 100 3 100 15 0 8 -8 15
-18 15 -34 0 -42 21 -42 113 l0 90 33 -7 c35 -7 37 -9 107 -117 52 -81 91
-109 149 -109 17 0 31 1 31 3 0 2 -24 28 -53 58 -29 29 -70 82 -90 116 l-38
62 45 44 c43 41 46 47 46 95 0 64 -34 108 -95 122 -53 13 -262 13 -270 0z
m258 -44 c31 -29 42 -64 34 -114 -9 -53 -45 -84 -106 -90 l-51 -5 0 117 0 116
49 0 c37 0 54 -6 74 -24z"/>
<path d="M2412 638 c3 -7 15 -14 27 -16 38 -6 43 -42 39 -267 -5 -223 -14
-270 -57 -297 -20 -12 -29 -38 -13 -38 21 0 74 44 99 81 l28 42 5 228 c3 132
9 232 15 238 6 5 19 11 29 13 11 1 21 9 24 16 3 9 -21 12 -98 12 -77 0 -101
-3 -98 -12z"/>
</g>
</svg>
